TINY 5x3-0.ufo
<glyph name="L" format="1">
  <advance width="300"/>
  <unicode hex="004C"/>
  <outline>
    <component base="_part.dot" xOffset="50" yOffset="100"/>
    <component base="_part.dot" xOffset="50" yOffset="200"/>
    <component base="_part.dot" xOffset="50" yOffset="300"/>
    <component base="_part.dot" xOffset="150"/>
    <component base="_part.dot" xOffset="50"/>
    <component base="_part.dot" xOffset="50" yOffset="400"/>
    <contour>
      <point x="200" y="-50" type="move" name="bottom"/>
    </contour>
    <contour>
      <point x="100" y="350" type="move" name="middle"/>
    </contour>
    <contour>
      <point x="100" y="550" type="move" name="top"/>
    </contour>
  </outline>
</glyph>
<glyph name="R" format="1">
  <advance width="400"/>
  <unicode hex="0052"/>
  <outline>
    <component base="_part.dot" xOffset="250"/>
    <component base="_part.dot" xOffset="250" yOffset="100"/>
    <component base="P"/>
    <contour>
      <point x="200" y="550" type="move" name="top"/>
    </contour>
  </outline>
</glyph>
<glyph name="Emacron" format="1">
  <advance width="300"/>
  <unicode hex="0112"/>
  <outline>
    <component base="E"/>
    <component base="uni0304"/>
    <contour>
      <point x="200" y="550" type="move" name="_top"/>
    </contour>
  </outline>
</glyph>
<glyph name="dotlessi" format="1">
  <advance width="200"/>
  <unicode hex="0131"/>
  <outline>
    <component base="_part.dot" xOffset="50"/>
    <component base="_part.dot" xOffset="50" yOffset="100"/>
    <component base="_part.dot" xOffset="50" yOffset="200"/>
    <component base="_part.dot" xOffset="50" yOffset="300"/>
    <contour>
      <point x="100" y="-50" type="move" name="bottom"/>
    </contour>
    <contour>
      <point x="100" y="450" type="move" name="top"/>
    </contour>
  </outline>
</glyph>
<glyph name="acutecomb" format="1">
  <advance width="300"/>
  <unicode hex="0301"/>
  <outline>
    <component base="_part.dot" xOffset="50" yOffset="600"/>
    <component base="_part.dot" xOffset="150" yOffset="700"/>
    <contour>
      <point x="100" y="550" type="move" name="_top"/>
    </contour>
  </outline>
</glyph>
<glyph name="uni0304" format="1">
  <advance width="400"/>
  <unicode hex="0304"/>
  <outline>
    <component base="_part.dot" xOffset="250" yOffset="600"/>
    <component base="_part.dot" xOffset="50" yOffset="600"/>
    <component base="_part.dot" xOffset="150" yOffset="600"/>
    <contour>
      <point x="200" y="550" type="move" name="_top"/>
    </contour>
  </outline>
</glyph>
<glyph name="commaturnedabovecomb" format="1">
  <advance width="300"/>
  <unicode hex="0312"/>
  <outline>
    <component base="quoteleft" yOffset="400"/>
    <contour>
      <point x="100" y="550" type="move" name="_top"/>
    </contour>
  </outline>
</glyph>
<glyph name="uni0312" format="1">
  <advance width="300"/>
  <unicode hex="0312"/>
  <outline>
    <component base="quoteleft" yOffset="400"/>
    <contour>
      <point x="100" y="550" type="move" name="_top"/>
    </contour>
  </outline>
</glyph>
<glyph name="uni0326" format="1">
  <advance width="300"/>
  <unicode hex="0326"/>
  <outline>
    <component base="comma" yOffset="-400"/>
    <contour>
      <point x="200" y="-50" type="move" name="_bottom"/>
    </contour>
  </outline>
</glyph>
<glyph name="ogonekcomb" format="1">
  <advance width="300"/>
  <unicode hex="0328"/>
  <outline>
    <component base="_part.dot" xOffset="50" yOffset="-100"/>
    <component base="_part.dot" xOffset="150" yOffset="-200"/>
    <component base="_part.dot" xOffset="50" yOffset="-200"/>
    <contour>
      <point x="100" y="-50" type="move" name="_bottom"/>
    </contour>
  </outline>
</glyph>
<glyph name="quoteleft" format="1">
  <advance width="300"/>
  <unicode hex="2018"/>
  <outline>
    <component base="_part.dot" xOffset="50" yOffset="200"/>
    <component base="_part.dot" xOffset="150" yOffset="200"/>
    <component base="_part.dot" xOffset="150" yOffset="400"/>
    <component base="_part.dot" xOffset="50" yOffset="300"/>
    <contour>
      <point x="100" y="150" type="move" name="_top"/>
    </contour>
  </outline>
</glyph>
<glyph name="R.ss03" format="1">
  <advance width="500"/>
  <outline>
    <component base="_part.dot" xOffset="350"/>
    <component base="_part.dot" xOffset="250" yOffset="100"/>
    <component base="P.ss03"/>
    <contour>
      <point x="200" y="550" type="move" name="top"/>
    </contour>
  </outline>
</glyph>
<glyph name="Y.ss03" format="1">
  <advance width="600"/>
  <outline>
    <component base="_part.dot" xOffset="250"/>
    <component base="_part.dot" xOffset="250" yOffset="200"/>
    <component base="_part.dot" xOffset="350" yOffset="300"/>
    <component base="_part.dot" xOffset="450" yOffset="400"/>
    <component base="_part.dot" xOffset="150" yOffset="300"/>
    <component base="_part.dot" xOffset="50" yOffset="400"/>
    <component base="_part.dot" xOffset="250" yOffset="100"/>
    <contour>
      <point x="300" y="550" type="move" name="top"/>
    </contour>
  </outline>
</glyph>
<glyph name="_part.dot" format="1">
  <advance width="100"/>
  <outline>
    <contour>
      <point x="50" y="50" type="curve" smooth="yes"/>
      <point x="50" y="50"/>
      <point x="50" y="50"/>
      <point x="50" y="50" type="curve" smooth="yes"/>
      <point x="50" y="50"/>
      <point x="50" y="50"/>
      <point x="50" y="50" type="curve" smooth="yes"/>
      <point x="50" y="50"/>
      <point x="50" y="50"/>
      <point x="50" y="50" type="curve" smooth="yes"/>
      <point x="50" y="50"/>
      <point x="50" y="50"/>
    </contour>
  </outline>
</glyph>
<glyph name="c.ss06" format="1">
  <advance width="400"/>
  <outline>
    <component base="_part.dot" xOffset="150"/>
    <component base="_part.dot" xOffset="50" yOffset="100"/>
    <component base="_part.dot" xOffset="150" yOffset="200"/>
    <component base="_part.dot" xOffset="250" yOffset="200"/>
    <component base="_part.dot" xOffset="250"/>
    <contour>
      <point x="200" y="350" type="move" name="top"/>
    </contour>
  </outline>
</glyph>
<glyph name="commaaccentcomb.right" format="1">
  <advance width="300"/>
  <outline>
    <component base="comma" yOffset="-400"/>
    <contour>
      <point x="100" y="-50" type="move" name="_bottom"/>
    </contour>
  </outline>
</glyph>
<glyph name="dotlessi.ss01" format="1">
  <advance width="400"/>
  <outline>
    <component base="_part.dot" xOffset="250"/>
    <component base="_part.dot" xOffset="50"/>
    <component base="_part.dot" xOffset="50" yOffset="200"/>
    <component base="dotlessi.ss06" xOffset="100"/>
    <contour>
      <point x="200" y="350" type="move" name="top"/>
    </contour>
  </outline>
</glyph>
<glyph name="dotlessi.ss01.ss02" format="1">
  <advance width="400"/>
  <outline>
    <component base="dotlessi" xOffset="100"/>
    <component base="_part.dot" xOffset="50" yOffset="300"/>
    <component base="_part.dot" xOffset="50"/>
    <component base="_part.dot" xOffset="250"/>
    <contour>
      <point x="200" y="450" type="move" name="top"/>
    </contour>
  </outline>
</glyph>
<glyph name="gravecomb.right" format="1">
  <advance width="300"/>
  <outline>
    <component base="_part.dot" xOffset="50" yOffset="700"/>
    <component base="_part.dot" xOffset="150" yOffset="600"/>
    <contour>
      <point x="100" y="550" type="move" name="_top"/>
    </contour>
  </outline>
</glyph>
<glyph name="tildecomb.left" format="1">
  <advance width="500"/>
  <outline>
    <component base="_part.dot" xOffset="50" yOffset="600"/>
    <component base="_part.dot" xOffset="150" yOffset="700"/>
    <component base="_part.dot" xOffset="250" yOffset="600"/>
    <component base="_part.dot" xOffset="350" yOffset="700"/>
    <contour>
      <point x="300" y="550" type="move" name="_top"/>
    </contour>
  </outline>
</glyph>
<glyph name="uni0326.right" format="1">
  <advance width="300"/>
  <outline>
    <component base="comma" yOffset="-400"/>
    <contour>
      <point x="100" y="-50" type="move" name="_bottom"/>
    </contour>
  </outline>
</glyph>
<glyph name="uni0328.right" format="1">
  <advance width="300"/>
  <outline>
    <component base="_part.dot" xOffset="50" yOffset="-100"/>
    <component base="_part.dot" xOffset="150" yOffset="-200"/>
    <component base="_part.dot" xOffset="50" yOffset="-200"/>
    <contour>
      <point x="0" y="-50" type="move" name="_bottom"/>
    </contour>
  </outline>
</glyph>
<glyph name="w.ss05" format="1">
  <advance width="600"/>
  <outline>
    <component base="_part.dot" xOffset="250" yOffset="100"/>
    <component base="_part.dot" xOffset="250" yOffset="200"/>
    <component base="_part.dot" xOffset="350"/>
    <component base="_part.dot" xOffset="450" yOffset="100"/>
    <component base="_part.dot" xOffset="150"/>
    <component base="_part.dot" xOffset="50" yOffset="300"/>
    <component base="_part.dot" xOffset="50" yOffset="200"/>
    <component base="_part.dot" xOffset="50" yOffset="100"/>
    <component base="_part.dot" xOffset="450" yOffset="200"/>
    <component base="_part.dot" xOffset="450" yOffset="300"/>
    <contour>
      <point x="300" y="450" type="move" name="top"/>
    </contour>
  </outline>
</glyph>
